{
    "asset" : {
        "copyright" : "Copyright 2020 Omabuarts Studio. For more info, visit https://omabuarts.com/license",
        "generator" : "Khronos glTF Blender I/O v1.1.46",
        "version" : "2.0"
    },
    "scene" : 0,
    "scenes" : [
        {
            "name" : "Scene",
            "nodes" : [
                13
            ]
        }
    ],
    "nodes" : [
        {
            "name" : "ear.L.01",
            "rotation" : [
                0.05556673929095268,
                0.014382986351847649,
                -0.005720702465623617,
                0.9983350038528442
            ],
            "scale" : [
                0.9999995827674866,
                0.9999995827674866,
                0.9999998211860657
            ],
            "translation" : [
                4.0112983157314375e-08,
                0.31008028984069824,
                7.450580596923828e-08
            ]
        },
        {
            "children" : [
                0
            ],
            "name" : "ear.L",
            "rotation" : [
                -0.12713001668453217,
                0.20711080729961395,
                -0.9271876215934753,
                0.28507232666015625
            ],
            "scale" : [
                0.9999998807907104,
                0.9999999403953552,
                0.9999997019767761
            ],
            "translation" : [
                0.2762874364852905,
                1.3367743492126465,
                0.43157994747161865
            ]
        },
        {
            "name" : "ear.R.01",
            "rotation" : [
                0.06678309291601181,
                -0.00850980170071125,
                -0.006775741931051016,
                0.9977083206176758
            ],
            "scale" : [
                1.000000238418579,
                1,
                1.0000001192092896
            ],
            "translation" : [
                -4.0112983157314375e-08,
                0.31008028984069824,
                7.450580596923828e-08
            ]
        },
        {
            "children" : [
                2
            ],
            "name" : "ear.R",
            "rotation" : [
                -0.12713001668453217,
                -0.20711080729961395,
                0.9271876215934753,
                0.28507232666015625
            ],
            "scale" : [
                0.9999998807907104,
                0.9999999403953552,
                0.9999997019767761
            ],
            "translation" : [
                -0.2762874364852905,
                1.3367743492126465,
                0.43157994747161865
            ]
        },
        {
            "name" : "tail.02",
            "rotation" : [
                0.1301010102033615,
                -0.9910721182823181,
                0.017335781827569008,
                0.023434413596987724
            ],
            "scale" : [
                0.9999997019767761,
                1.0000001192092896,
                0.9999995231628418
            ],
            "translation" : [
                5.1514348342607263e-14,
                0.5026026964187622,
                1.865174681370263e-14
            ]
        },
        {
            "children" : [
                4
            ],
            "name" : "tail.01",
            "rotation" : [
                0.11845570057630539,
                -0.5436266660690308,
                0.8248355388641357,
                0.1004226878285408
            ],
            "scale" : [
                1.0000001192092896,
                1.0000004768371582,
                1.000000238418579
            ],
            "translation" : [
                -3.0626441827052986e-08,
                0.2600324749946594,
                -0.7839826345443726
            ]
        },
        {
            "children" : [
                1,
                3,
                5
            ],
            "name" : "body",
            "rotation" : [
                0.7071068286895752,
                -7.850462820808426e-17,
                -7.850462820808426e-17,
                0.7071068286895752
            ],
            "translation" : [
                7.643122390210374e-18,
                0.034421563148498535,
                0.6309828162193298
            ]
        },
        {
            "name" : "leg.F.L",
            "rotation" : [
                -2.2197249904820637e-07,
                -0.7071068286895752,
                0.7071068286895752,
                2.2197249904820637e-07
            ],
            "translation" : [
                0.35821333527565,
                -0.3221341371536255,
                0.7199999094009399
            ]
        },
        {
            "name" : "leg.B.L",
            "rotation" : [
                -2.2197249904820637e-07,
                -0.7071068286895752,
                0.7071068286895752,
                2.2197249904820637e-07
            ],
            "translation" : [
                0.35821333527565,
                0.6882361769676208,
                0.7199999094009399
            ]
        },
        {
            "name" : "leg.F.R",
            "rotation" : [
                2.2197249904820637e-07,
                -0.7071068286895752,
                0.7071068286895752,
                -2.2197249904820637e-07
            ],
            "translation" : [
                -0.35821333527565,
                -0.3221341371536255,
                0.7199999094009399
            ]
        },
        {
            "name" : "leg.B.R",
            "rotation" : [
                2.2197249904820637e-07,
                -0.7071068286895752,
                0.7071068286895752,
                -2.2197249904820637e-07
            ],
            "translation" : [
                -0.35821333527565,
                0.6882361769676208,
                0.7199999094009399
            ]
        },
        {
            "children" : [
                6,
                7,
                8,
                9,
                10
            ],
            "name" : "root",
            "rotation" : [
                -0.7071068286895752,
                7.850462820808426e-17,
                7.850462820808426e-17,
                0.7071068286895752
            ]
        },
        {
            "mesh" : 0,
            "name" : "Dog",
            "skin" : 0
        },
        {
            "children" : [
                12,
                11
            ],
            "name" : "Rig"
        }
    ],
    "materials" : [
        {
            "doubleSided" : true,
            "emissiveFactor" : [
                0,
                0,
                0
            ],
            "name" : "Mat_Dog",
            "pbrMetallicRoughness" : {
                "baseColorTexture" : {
                    "index" : 0,
                    "texCoord" : 0
                },
                "metallicFactor" : 0,
                "roughnessFactor" : 0.5
            }
        }
    ],
    "meshes" : [
        {
            "name" : "Cube.005",
            "primitives" : [
                {
                    "attributes" : {
                        "POSITION" : 0,
                        "NORMAL" : 1,
                        "TEXCOORD_0" : 2,
                        "COLOR_0" : 3,
                        "JOINTS_0" : 4,
                        "WEIGHTS_0" : 5
                    },
                    "indices" : 6,
                    "material" : 0
                }
            ]
        }
    ],
    "textures" : [
        {
            "source" : 0
        }
    ],
    "images" : [
        {
            "bufferView" : 7,
            "mimeType" : "image/png",
            "name" : "Tex_Dog"
        }
    ],
    "skins" : [
        {
            "inverseBindMatrices" : 7,
            "joints" : [
                11,
                6,
                1,
                0,
                3,
                2,
                5,
                4,
                7,
                8,
                9,
                10
            ],
            "name" : "Rig"
        }
    ],
    "accessors" : [
        {
            "bufferView" : 0,
            "componentType" : 5126,
            "count" : 606,
            "max" : [
                0.6415082812309265,
                2.15964937210083,
                1.2753286361694336
            ],
            "min" : [
                -0.64158695936203,
                0.01456955261528492,
                -1.726250410079956
            ],
            "type" : "VEC3"
        },
        {
            "bufferView" : 1,
            "componentType" : 5126,
            "count" : 606,
            "type" : "VEC3"
        },
        {
            "bufferView" : 2,
            "componentType" : 5126,
            "count" : 606,
            "type" : "VEC2"
        },
        {
            "bufferView" : 3,
            "componentType" : 5126,
            "count" : 606,
            "type" : "VEC4"
        },
        {
            "bufferView" : 4,
            "componentType" : 5123,
            "count" : 606,
            "type" : "VEC4"
        },
        {
            "bufferView" : 5,
            "componentType" : 5126,
            "count" : 606,
            "type" : "VEC4"
        },
        {
            "bufferView" : 6,
            "componentType" : 5123,
            "count" : 2748,
            "type" : "SCALAR"
        },
        {
            "bufferView" : 8,
            "componentType" : 5126,
            "count" : 12,
            "type" : "MAT4"
        }
    ],
    "bufferViews" : [
        {
            "buffer" : 0,
            "byteLength" : 7272,
            "byteOffset" : 0
        },
        {
            "buffer" : 0,
            "byteLength" : 7272,
            "byteOffset" : 7272
        },
        {
            "buffer" : 0,
            "byteLength" : 4848,
            "byteOffset" : 14544
        },
        {
            "buffer" : 0,
            "byteLength" : 9696,
            "byteOffset" : 19392
        },
        {
            "buffer" : 0,
            "byteLength" : 4848,
            "byteOffset" : 29088
        },
        {
            "buffer" : 0,
            "byteLength" : 9696,
            "byteOffset" : 33936
        },
        {
            "buffer" : 0,
            "byteLength" : 5496,
            "byteOffset" : 43632
        },
        {
            "buffer" : 0,
            "byteLength" : 133,
            "byteOffset" : 49128
        },
        {
            "buffer" : 0,
            "byteLength" : 768,
            "byteOffset" : 49264
        }
    ],
    "buffers" : [
        {
            "byteLength" : 50032,
            "uri" : "data:application/octet-stream;base64,"
        }
    ]
}
